<svg aria-hidden="true" style="position: absolute; width: 0; height: 0; overflow: hidden;" version="1.1" xmlns="http://www.w3.org/2000/svg" xmlns:xlink="http://www.w3.org/1999/xlink">
<defs>
<symbol id="icon-facebook-official" viewBox="0 0 24 28">
<path d="M22.672 2c0.734 0 1.328 0.594 1.328 1.328v21.344c0 0.734-0.594 1.328-1.328 1.328h-6.109v-9.297h3.109l0.469-3.625h-3.578v-2.312c0-1.047 0.281-1.75 1.797-1.75l1.906-0.016v-3.234c-0.328-0.047-1.469-0.141-2.781-0.141-2.766 0-4.672 1.687-4.672 4.781v2.672h-3.125v3.625h3.125v9.297h-11.484c-0.734 0-1.328-0.594-1.328-1.328v-21.344c0-0.734 0.594-1.328 1.328-1.328h21.344z"></path>
</symbol>
<symbol id="icon-cc-mastercard" viewBox="0 0 36 28">
<path d="M17.484 5.328c-1.297-0.859-2.828-1.328-4.391-1.328-4.391 0-7.953 3.563-7.953 7.938 0 4.391 3.563 7.953 7.953 7.953 1.563 0 3.094-0.469 4.391-1.328-4.188-3.406-4.156-9.828 0-13.234zM18 5.703c-4.031 3.172-4.047 9.328 0 12.484 4.047-3.156 4.031-9.312 0-12.484zM18.516 5.328c4.141 3.406 4.203 9.844 0 13.234 1.297 0.859 2.844 1.328 4.391 1.328 4.391 0 7.953-3.563 7.953-7.953 0-4.375-3.563-7.938-7.953-7.938-1.563 0-3.094 0.469-4.391 1.328zM30.094 16.609h0.109v-0.047h-0.266v0.047h0.109v0.266h0.047v-0.266zM30.547 16.875h0.063v-0.313h-0.078l-0.094 0.203-0.094-0.203h-0.078v0.313h0.047v-0.234l0.094 0.203h0.063l0.078-0.203v0.234zM30.422 23.75v0.031h-0.078v-0.047h0.078v0.016zM30.422 23.891h0.047l-0.063-0.078c0.031 0 0.031-0.016 0.047-0.016 0.016-0.016 0.016-0.031 0.016-0.047s0-0.031-0.016-0.047c-0.016 0-0.031-0.016-0.063-0.016h-0.094v0.203h0.047v-0.078h0.016zM10.703 22.828c0-0.375 0.234-0.672 0.641-0.672 0.375 0 0.625 0.297 0.625 0.672 0 0.391-0.25 0.672-0.625 0.672-0.406 0-0.641-0.297-0.641-0.672zM18.094 22.141c0.297 0 0.5 0.172 0.547 0.5h-1.094c0.047-0.297 0.234-0.5 0.547-0.5zM23.656 22.828c0-0.375 0.234-0.672 0.625-0.672s0.641 0.297 0.641 0.672c0 0.391-0.25 0.672-0.641 0.672s-0.625-0.297-0.625-0.672zM27.906 22.828c0-0.375 0.25-0.672 0.641-0.672 0.375 0 0.641 0.297 0.641 0.672 0 0.391-0.266 0.672-0.641 0.672-0.391 0-0.641-0.297-0.641-0.672zM30.375 23.953c-0.016 0-0.031 0-0.063-0.016-0.016 0-0.031-0.016-0.047-0.031s-0.031-0.031-0.031-0.047-0.016-0.047-0.016-0.063 0-0.047 0.016-0.063c0-0.031 0.016-0.047 0.031-0.063s0.031-0.016 0.047-0.031 0.047-0.016 0.063-0.016 0.047 0 0.063 0.016 0.047 0.016 0.063 0.031 0.016 0.031 0.031 0.063c0 0.016 0.016 0.031 0.016 0.063 0 0.016-0.016 0.031-0.016 0.063-0.016 0.016-0.016 0.031-0.031 0.047s-0.031 0.031-0.063 0.031c-0.016 0.016-0.031 0.016-0.063 0.016zM9.359 23.891h0.469v-1.328c0-0.5-0.328-0.828-0.844-0.844-0.266 0-0.547 0.078-0.734 0.375-0.141-0.234-0.375-0.375-0.703-0.375-0.219 0-0.438 0.078-0.609 0.313v-0.25h-0.469v2.109h0.469v-1.172c0-0.375 0.203-0.562 0.516-0.562s0.469 0.203 0.469 0.562v1.172h0.453v-1.172c0-0.375 0.219-0.562 0.516-0.562 0.313 0 0.469 0.203 0.469 0.562v1.172zM11.953 23.891h0.453v-2.109h-0.453v0.25c-0.156-0.187-0.375-0.313-0.672-0.313-0.594 0-1.047 0.469-1.047 1.109s0.453 1.109 1.047 1.109c0.297 0 0.516-0.109 0.672-0.313v0.266zM14.734 23.25c0-0.375-0.281-0.562-0.734-0.625l-0.219-0.031c-0.203-0.031-0.359-0.078-0.359-0.219s0.141-0.234 0.391-0.234c0.281 0 0.531 0.094 0.672 0.172l0.187-0.375c-0.219-0.141-0.516-0.219-0.859-0.219-0.531 0-0.875 0.266-0.875 0.688 0 0.344 0.25 0.547 0.734 0.609l0.203 0.031c0.266 0.047 0.375 0.109 0.375 0.219 0 0.172-0.172 0.266-0.484 0.266s-0.547-0.109-0.703-0.219l-0.203 0.359c0.25 0.172 0.562 0.266 0.906 0.266 0.609 0 0.969-0.281 0.969-0.688zM16.766 23.781l-0.125-0.391c-0.141 0.078-0.281 0.109-0.406 0.109-0.234 0-0.297-0.141-0.297-0.344v-0.953h0.75v-0.422h-0.75v-0.641h-0.469v0.641h-0.438v0.422h0.438v0.953c0 0.484 0.187 0.781 0.734 0.781 0.187 0 0.422-0.063 0.562-0.156zM18.109 21.719c-0.609 0-1.047 0.453-1.047 1.109 0 0.672 0.453 1.109 1.078 1.109 0.313 0 0.609-0.078 0.859-0.297l-0.219-0.344c-0.172 0.141-0.406 0.234-0.609 0.234-0.297 0-0.562-0.141-0.641-0.516h1.578v-0.187c0-0.656-0.406-1.109-1-1.109zM20.594 21.719c-0.266 0-0.438 0.125-0.547 0.313v-0.25h-0.469v2.109h0.469v-1.188c0-0.344 0.141-0.547 0.453-0.547 0.094 0 0.187 0.016 0.281 0.063l0.141-0.438c-0.109-0.047-0.234-0.063-0.328-0.063zM21.063 22.828c0 0.641 0.438 1.109 1.125 1.109 0.313 0 0.531-0.063 0.75-0.25l-0.219-0.375c-0.172 0.125-0.344 0.203-0.547 0.187-0.375 0-0.641-0.266-0.641-0.672s0.266-0.672 0.641-0.672c0.203 0 0.375 0.063 0.547 0.187l0.219-0.375c-0.219-0.172-0.438-0.25-0.75-0.25-0.688 0-1.125 0.469-1.125 1.109zM24.891 23.891h0.469v-2.109h-0.469v0.25c-0.141-0.187-0.359-0.313-0.656-0.313-0.594 0-1.062 0.469-1.062 1.109s0.469 1.109 1.062 1.109c0.297 0 0.516-0.109 0.656-0.313v0.266zM26.969 21.719c-0.266 0-0.438 0.125-0.547 0.313v-0.25h-0.453v2.109h0.453v-1.188c0-0.344 0.156-0.547 0.453-0.547 0.094 0 0.187 0.016 0.281 0.063l0.141-0.438c-0.094-0.047-0.234-0.063-0.328-0.063zM29.156 23.891h0.453v-2.969h-0.453v1.109c-0.141-0.187-0.359-0.313-0.672-0.313-0.578 0-1.047 0.469-1.047 1.109s0.469 1.109 1.047 1.109c0.313 0 0.531-0.109 0.672-0.313v0.266zM30.375 23.578c-0.016 0-0.047 0.016-0.078 0.016-0.031 0.016-0.047 0.031-0.063 0.047-0.031 0.016-0.047 0.047-0.047 0.063-0.016 0.031-0.016 0.063-0.016 0.094 0 0.016 0 0.047 0.016 0.078 0 0.016 0.016 0.047 0.047 0.063 0.016 0.016 0.031 0.031 0.063 0.047s0.063 0.016 0.078 0.016c0.031 0 0.063 0 0.094-0.016 0.016-0.016 0.047-0.031 0.063-0.047s0.031-0.047 0.047-0.063c0.016-0.031 0.016-0.063 0.016-0.078 0-0.031 0-0.063-0.016-0.094-0.016-0.016-0.031-0.047-0.047-0.063s-0.047-0.031-0.063-0.047c-0.031 0-0.063-0.016-0.094-0.016zM36 4v20c0 1.094-0.906 2-2 2h-32c-1.094 0-2-0.906-2-2v-20c0-1.094 0.906-2 2-2h32c1.094 0 2 0.906 2 2z"></path>
</symbol>
<symbol id="icon-cc-stripe" viewBox="0 0 36 28">
<path d="M24.953 14.109c0 0.719-0.109 1.266-0.328 1.656-0.187 0.344-0.484 0.547-0.812 0.547-0.234 0-0.453-0.047-0.641-0.141v-3.5c0.406-0.422 0.766-0.469 0.891-0.469 0.594 0 0.891 0.656 0.891 1.906zM31.797 13.547h-1.719c0.063-1.047 0.344-1.531 0.875-1.531s0.812 0.5 0.844 1.531zM7.438 15.656c0-1.313-0.797-1.859-2.094-2.328v0c-0.688-0.25-1.062-0.453-1.062-0.766 0-0.266 0.219-0.406 0.594-0.406 0.719 0 1.437 0.266 1.937 0.516l0.281-1.75c-0.391-0.187-1.203-0.5-2.328-0.5-0.797 0-1.453 0.203-1.922 0.594-0.5 0.406-0.75 1-0.75 1.703 0 1.281 0.781 1.844 2.063 2.297 0.812 0.297 1.094 0.5 1.094 0.828 0 0.313-0.266 0.484-0.75 0.484-0.594 0-1.578-0.297-2.219-0.672l-0.281 1.766c0.547 0.313 1.563 0.641 2.625 0.641 0.844 0 1.531-0.203 2.016-0.578 0.531-0.422 0.797-1.031 0.797-1.828zM12.047 12.297l0.297-1.734h-1.5v-2.109l-2.016 0.328-0.281 1.781-0.719 0.125-0.266 1.609h0.969v3.422c0 0.891 0.234 1.5 0.688 1.875 0.391 0.313 0.953 0.469 1.734 0.469 0.609 0 0.969-0.109 1.234-0.172v-1.844c-0.141 0.031-0.469 0.109-0.688 0.109-0.453 0-0.656-0.25-0.656-0.781v-3.078h1.203zM16.984 12.688v-2.172c-0.156-0.031-0.297-0.047-0.438-0.047-0.656 0-1.188 0.344-1.391 0.969l-0.156-0.875h-2.047v7.359h2.344v-4.781c0.297-0.359 0.719-0.484 1.281-0.484 0.125 0 0.25 0 0.406 0.031zM17.563 17.922h2.344v-7.359h-2.344v7.359zM27.281 14.031c0-1.25-0.234-2.203-0.703-2.797-0.422-0.547-1-0.812-1.734-0.812-0.672 0-1.266 0.281-1.828 0.875l-0.125-0.734h-2.063v10.078l2.344-0.391v-2.359c0.359 0.109 0.734 0.172 1.062 0.172 0.578 0 1.437-0.156 2.094-0.875 0.641-0.688 0.953-1.75 0.953-3.156zM19.969 8.594c0-0.688-0.547-1.234-1.234-1.234s-1.234 0.547-1.234 1.234 0.547 1.25 1.234 1.25 1.234-0.562 1.234-1.25zM34 14.172c0-1.172-0.25-2.094-0.75-2.75-0.516-0.656-1.281-1-2.25-1-2 0-3.234 1.469-3.234 3.844 0 1.313 0.328 2.312 0.984 2.938 0.578 0.578 1.422 0.859 2.516 0.859 1 0 1.922-0.234 2.5-0.625l-0.25-1.609c-0.578 0.313-1.25 0.484-2 0.484-0.453 0-0.766-0.094-0.984-0.297-0.25-0.203-0.391-0.547-0.438-1.031h3.875c0.016-0.109 0.031-0.641 0.031-0.812zM36 4v20c0 1.094-0.906 2-2 2h-32c-1.094 0-2-0.906-2-2v-20c0-1.094 0.906-2 2-2h32c1.094 0 2 0.906 2 2z"></path>
</symbol>
<symbol id="icon-cc-paypal" viewBox="0 0 36 28">
<path d="M11.641 14.156c0 0.766-0.609 1.344-1.375 1.344-0.578 0-1-0.328-1-0.938 0-0.766 0.594-1.375 1.359-1.375 0.578 0 1.016 0.359 1.016 0.969zM23.906 11.828c0 0.938-0.562 1.125-1.375 1.125l-0.5 0.016 0.266-1.672c0.016-0.109 0.094-0.172 0.203-0.172h0.281c0.531 0 1.125 0.031 1.125 0.703zM29.391 14.156c0 0.766-0.609 1.344-1.359 1.344-0.578 0-1.016-0.328-1.016-0.938 0-0.766 0.594-1.375 1.359-1.375 0.578 0 1.016 0.359 1.016 0.969zM8.016 11.484c0-1.313-1.016-1.75-2.172-1.75h-2.5c-0.156 0-0.313 0.125-0.328 0.297l-1.016 6.375c-0.016 0.125 0.078 0.25 0.203 0.25h1.188c0.172 0 0.328-0.125 0.344-0.297l0.281-1.719c0.063-0.453 0.828-0.297 1.125-0.297 1.781 0 2.875-1.062 2.875-2.859zM12.844 16.359l0.641-4.078c0.016-0.125-0.078-0.25-0.203-0.25h-1.188c-0.234 0-0.25 0.344-0.266 0.516-0.359-0.531-0.891-0.625-1.484-0.625-1.531 0-2.703 1.344-2.703 2.828 0 1.219 0.766 2.016 1.984 2.016 0.562 0 1.266-0.25 1.656-0.688-0.031 0.094-0.063 0.234-0.063 0.328 0 0.141 0.063 0.25 0.203 0.25h1.078c0.172 0 0.313-0.125 0.344-0.297zM19.828 12.25c0-0.109-0.094-0.219-0.203-0.219h-1.203c-0.109 0-0.219 0.063-0.281 0.156l-1.656 2.438-0.688-2.344c-0.047-0.141-0.187-0.25-0.344-0.25h-1.172c-0.109 0-0.203 0.109-0.203 0.219 0 0.078 1.219 3.609 1.328 3.938-0.172 0.234-1.281 1.687-1.281 1.875 0 0.109 0.094 0.203 0.203 0.203h1.203c0.109 0 0.219-0.063 0.281-0.156l3.984-5.75c0.031-0.031 0.031-0.063 0.031-0.109zM25.766 11.484c0-1.313-1.016-1.75-2.172-1.75h-2.484c-0.172 0-0.328 0.125-0.344 0.297l-1.016 6.375c-0.016 0.125 0.078 0.25 0.203 0.25h1.281c0.125 0 0.219-0.094 0.25-0.203l0.281-1.813c0.063-0.453 0.828-0.297 1.125-0.297 1.781 0 2.875-1.062 2.875-2.859zM30.594 16.359l0.641-4.078c0.016-0.125-0.078-0.25-0.203-0.25h-1.188c-0.234 0-0.25 0.344-0.266 0.516-0.344-0.531-0.875-0.625-1.484-0.625-1.531 0-2.703 1.344-2.703 2.828 0 1.219 0.766 2.016 1.984 2.016 0.578 0 1.281-0.25 1.656-0.688-0.016 0.094-0.063 0.234-0.063 0.328 0 0.141 0.063 0.25 0.203 0.25h1.078c0.172 0 0.313-0.125 0.344-0.297zM34 9.969v-0.016c0-0.125-0.094-0.219-0.203-0.219h-1.156c-0.094 0-0.187 0.078-0.203 0.172l-1.016 6.5-0.016 0.031c0 0.109 0.094 0.219 0.219 0.219h1.031c0.156 0 0.313-0.125 0.328-0.297zM6.125 12.063c-0.125 0.797-0.656 0.891-1.344 0.891l-0.516 0.016 0.266-1.672c0.016-0.109 0.109-0.172 0.203-0.172h0.297c0.703 0 1.234 0.094 1.094 0.938zM36 4v20c0 1.094-0.906 2-2 2h-32c-1.094 0-2-0.906-2-2v-20c0-1.094 0.906-2 2-2h32c1.094 0 2 0.906 2 2z"></path>
</symbol>
<symbol id="icon-cc-visa" viewBox="0 0 36 28">
<path d="M30.859 15.469h-2.156c0 0 0.219-0.578 1.031-2.797-0.016 0.016 0.219-0.578 0.344-0.953l0.187 0.859c0.484 2.391 0.594 2.891 0.594 2.891zM8.297 14.453l-0.906-4.609c-0.125-0.641-0.609-0.844-1.172-0.844h-4.188l-0.031 0.203c2.875 0.734 5.234 2.297 6.297 5.25zM11.094 9l-2.531 6.844-0.266-1.391c-0.547-1.453-1.875-2.797-3.375-3.406l2.109 7.969h2.734l4.078-10.016h-2.75zM13.266 19.031h2.594l1.625-10.031h-2.594zM25.266 9.25c-0.516-0.203-1.328-0.422-2.328-0.422-2.562 0-4.359 1.359-4.375 3.313-0.016 1.437 1.281 2.234 2.266 2.719 1.016 0.484 1.344 0.812 1.344 1.25 0 0.672-0.812 0.969-1.547 0.969-1.047 0-1.609-0.125-2.438-0.516l-0.344-0.172-0.359 2.25c0.609 0.281 1.719 0.531 2.891 0.531 2.719 0.016 4.484-1.344 4.516-3.422 0-1.141-0.703-2-2.188-2.719-0.906-0.453-1.453-0.781-1.453-1.25 0-0.422 0.469-0.859 1.484-0.859 0.844-0.016 1.469 0.156 1.937 0.375l0.234 0.125zM31.906 9h-2c-0.625 0-1.094 0.187-1.359 0.844l-3.844 9.188h2.719c0.438-1.234 0.547-1.5 0.547-1.5h3.313c0 0 0.078 0.344 0.313 1.5h2.406zM36 4v20c0 1.094-0.906 2-2 2h-32c-1.094 0-2-0.906-2-2v-20c0-1.094 0.906-2 2-2h32c1.094 0 2 0.906 2 2z"></path>
</symbol>
<symbol id="icon-phone" viewBox="0 0 24 24">
<path d="M23 16.92c0.016-0.714-0.236-1.404-0.673-1.943-0.46-0.566-1.129-0.967-1.925-1.080-0.8-0.098-1.695-0.314-2.586-0.646-0.433-0.159-0.893-0.218-1.344-0.174-0.663 0.064-1.307 0.349-1.819 0.855l-0.72 0.72c-1.77-1.117-3.36-2.667-4.583-4.589l0.726-0.726c0.322-0.33 0.563-0.726 0.707-1.156 0.212-0.632 0.214-1.336-0.039-2.011-0.289-0.753-0.518-1.644-0.644-2.595-0.104-0.714-0.456-1.345-0.963-1.804-0.539-0.486-1.256-0.779-2.027-0.771h-2.996c-0.088 0-0.182 0.004-0.273 0.012-0.824 0.075-1.542 0.478-2.033 1.066s-0.758 1.367-0.683 2.199c0.3 3.076 1.365 6.243 3.216 9.102 1.502 2.413 3.648 4.623 6.298 6.306 2.568 1.697 5.684 2.862 9.086 3.231 0.092 0.009 0.191 0.013 0.288 0.013 0.828-0.003 1.578-0.343 2.118-0.887s0.873-1.297 0.87-2.121zM21 16.92v3c0.001 0.28-0.109 0.53-0.29 0.712s-0.429 0.295-0.706 0.296c-3.149-0.336-5.961-1.391-8.263-2.912-2.428-1.543-4.359-3.537-5.702-5.694-1.697-2.62-2.655-5.481-2.924-8.238-0.024-0.268 0.064-0.526 0.229-0.724s0.403-0.33 0.678-0.355l3.088-0.005c0.271-0.003 0.507 0.094 0.687 0.256 0.17 0.154 0.288 0.366 0.323 0.608 0.142 1.072 0.408 2.117 0.757 3.025 0.081 0.216 0.080 0.447 0.010 0.658-0.049 0.145-0.131 0.281-0.242 0.395l-1.262 1.261c-0.324 0.324-0.379 0.814-0.162 1.201 1.584 2.785 3.839 4.957 6.381 6.378 0.397 0.222 0.882 0.144 1.195-0.166l1.27-1.27c0.166-0.164 0.377-0.257 0.598-0.279 0.152-0.015 0.31 0.005 0.459 0.060 1.022 0.381 2.070 0.636 3.034 0.754 0.241 0.034 0.462 0.166 0.615 0.355 0.147 0.181 0.231 0.412 0.226 0.682z"></path>
</symbol>
<symbol id="icon-map-pin" viewBox="0 0 24 24">
<path d="M22 10c0-2.761-1.12-5.263-2.929-7.071s-4.31-2.929-7.071-2.929-5.263 1.12-7.071 2.929-2.929 4.31-2.929 7.071c0 0.569 0.053 1.128 0.15 1.676 0.274 1.548 0.899 3.004 1.682 4.32 2.732 4.591 7.613 7.836 7.613 7.836 0.331 0.217 0.765 0.229 1.109 0 0 0 4.882-3.245 7.613-7.836 0.783-1.316 1.408-2.772 1.682-4.32 0.098-0.548 0.151-1.107 0.151-1.676zM20 10c0 0.444-0.041 0.887-0.119 1.328-0.221 1.25-0.737 2.478-1.432 3.646-1.912 3.214-5.036 5.747-6.369 6.74-1.398-0.916-4.588-3.477-6.53-6.74-0.695-1.168-1.211-2.396-1.432-3.646-0.077-0.441-0.118-0.884-0.118-1.328 0-2.209 0.894-4.208 2.343-5.657s3.448-2.343 5.657-2.343 4.208 0.894 5.657 2.343 2.343 3.448 2.343 5.657zM16 10c0-1.104-0.449-2.106-1.172-2.828s-1.724-1.172-2.828-1.172-2.106 0.449-2.828 1.172-1.172 1.724-1.172 2.828 0.449 2.106 1.172 2.828 1.724 1.172 2.828 1.172 2.106-0.449 2.828-1.172 1.172-1.724 1.172-2.828zM14 10c0 0.553-0.223 1.051-0.586 1.414s-0.861 0.586-1.414 0.586-1.051-0.223-1.414-0.586-0.586-0.861-0.586-1.414 0.223-1.051 0.586-1.414 0.861-0.586 1.414-0.586 1.051 0.223 1.414 0.586 0.586 0.861 0.586 1.414z"></path>
</symbol>
<symbol id="icon-send" viewBox="0 0 24 24">
<path d="M22.963 2.269c0.043-0.151 0.050-0.314 0.015-0.476-0.024-0.113-0.068-0.224-0.131-0.325-0.064-0.102-0.145-0.19-0.238-0.262-0.117-0.090-0.249-0.15-0.386-0.181s-0.282-0.034-0.426-0.004c-0.042 0.009-0.085 0.021-0.126 0.035l-0.021 0.007-19.98 6.993c-0.252 0.088-0.467 0.276-0.584 0.538-0.224 0.505 0.003 1.096 0.508 1.32l8.649 3.844 3.844 8.649c0.108 0.243 0.313 0.443 0.583 0.538 0.521 0.182 1.092-0.092 1.274-0.614l6.993-19.979c0.010-0.027 0.019-0.054 0.027-0.082zM10.779 11.807l-6.068-2.696 13.483-4.72zM19.609 5.806l-4.72 13.483-2.696-6.068z"></path>
</symbol>
<symbol id="icon-heart" viewBox="0 0 24 24">
<path d="M20.133 5.317c0.88 0.881 1.319 2.031 1.319 3.184s-0.44 2.303-1.319 3.182l-8.133 8.133-8.133-8.133c-0.879-0.879-1.318-2.029-1.318-3.183s0.439-2.304 1.318-3.183 2.029-1.318 3.183-1.318 2.304 0.439 3.183 1.318l1.060 1.060c0.391 0.391 1.024 0.391 1.414 0l1.062-1.062c0.879-0.879 2.029-1.318 3.182-1.317s2.303 0.44 3.182 1.319zM21.547 3.903c-1.269-1.269-2.934-1.904-4.596-1.905s-3.327 0.634-4.597 1.903l-0.354 0.355-0.353-0.353c-1.269-1.269-2.935-1.904-4.597-1.904s-3.328 0.635-4.597 1.904-1.904 2.935-1.904 4.597 0.635 3.328 1.904 4.597l8.84 8.84c0.391 0.391 1.024 0.391 1.414 0l8.84-8.84c1.269-1.269 1.904-2.934 1.905-4.596s-0.634-3.327-1.905-4.598z"></path>
</symbol>
<symbol id="icon-user" viewBox="0 0 24 24">
<path d="M21 21v-2c0-1.38-0.561-2.632-1.464-3.536s-2.156-1.464-3.536-1.464h-8c-1.38 0-2.632 0.561-3.536 1.464s-1.464 2.156-1.464 3.536v2c0 0.552 0.448 1 1 1s1-0.448 1-1v-2c0-0.829 0.335-1.577 0.879-2.121s1.292-0.879 2.121-0.879h8c0.829 0 1.577 0.335 2.121 0.879s0.879 1.292 0.879 2.121v2c0 0.552 0.448 1 1 1s1-0.448 1-1zM17 7c0-1.38-0.561-2.632-1.464-3.536s-2.156-1.464-3.536-1.464-2.632 0.561-3.536 1.464-1.464 2.156-1.464 3.536 0.561 2.632 1.464 3.536 2.156 1.464 3.536 1.464 2.632-0.561 3.536-1.464 1.464-2.156 1.464-3.536zM15 7c0 0.829-0.335 1.577-0.879 2.121s-1.292 0.879-2.121 0.879-1.577-0.335-2.121-0.879-0.879-1.292-0.879-2.121 0.335-1.577 0.879-2.121 1.292-0.879 2.121-0.879 1.577 0.335 2.121 0.879 0.879 1.292 0.879 2.121z"></path>
</symbol>
<symbol id="icon-shopping-cart" viewBox="0 0 24 24">
<path d="M11 21c0-0.552-0.225-1.053-0.586-1.414s-0.862-0.586-1.414-0.586-1.053 0.225-1.414 0.586-0.586 0.862-0.586 1.414 0.225 1.053 0.586 1.414 0.862 0.586 1.414 0.586 1.053-0.225 1.414-0.586 0.586-0.862 0.586-1.414zM22 21c0-0.552-0.225-1.053-0.586-1.414s-0.862-0.586-1.414-0.586-1.053 0.225-1.414 0.586-0.586 0.862-0.586 1.414 0.225 1.053 0.586 1.414 0.862 0.586 1.414 0.586 1.053-0.225 1.414-0.586 0.586-0.862 0.586-1.414zM7.221 7h14.57l-1.371 7.191c-0.046 0.228-0.166 0.425-0.332 0.568-0.18 0.156-0.413 0.246-0.688 0.241h-9.734c-0.232 0.003-0.451-0.071-0.626-0.203-0.19-0.143-0.329-0.351-0.379-0.603zM1 2h3.18l0.848 4.239c0.108 0.437 0.502 0.761 0.972 0.761h1.221l-0.4-2h-0.821c-0.552 0-1 0.448-1 1 0 0.053 0.004 0.105 0.012 0.155 0.004 0.028 0.010 0.057 0.017 0.084l1.671 8.347c0.149 0.751 0.57 1.383 1.14 1.811 0.521 0.392 1.17 0.613 1.854 0.603h9.706c0.748 0.015 1.455-0.261 1.995-0.727 0.494-0.426 0.848-1.013 0.985-1.683l1.602-8.402c0.103-0.543-0.252-1.066-0.795-1.17-0.065-0.013-0.13-0.019-0.187-0.018h-16.18l-0.84-4.196c-0.094-0.462-0.497-0.804-0.98-0.804h-4c-0.552 0-1 0.448-1 1s0.448 1 1 1z"></path>
</symbol>
<symbol id="icon-heart1" viewBox="0 0 32 32">
<path d="M23.6 2c-3.363 0-6.258 2.736-7.599 5.594-1.342-2.858-4.237-5.594-7.601-5.594-4.637 0-8.4 3.764-8.4 8.401 0 9.433 9.516 11.906 16.001 21.232 6.13-9.268 15.999-12.1 15.999-21.232 0-4.637-3.763-8.401-8.4-8.401z"></path>
</symbol>
<symbol id="icon-instagram" viewBox="0 0 32 32">
<path d="M16 2.881c4.275 0 4.781 0.019 6.462 0.094 1.563 0.069 2.406 0.331 2.969 0.55 0.744 0.288 1.281 0.638 1.837 1.194 0.563 0.563 0.906 1.094 1.2 1.838 0.219 0.563 0.481 1.412 0.55 2.969 0.075 1.688 0.094 2.194 0.094 6.463s-0.019 4.781-0.094 6.463c-0.069 1.563-0.331 2.406-0.55 2.969-0.288 0.744-0.637 1.281-1.194 1.837-0.563 0.563-1.094 0.906-1.837 1.2-0.563 0.219-1.413 0.481-2.969 0.55-1.688 0.075-2.194 0.094-6.463 0.094s-4.781-0.019-6.463-0.094c-1.563-0.069-2.406-0.331-2.969-0.55-0.744-0.288-1.281-0.637-1.838-1.194-0.563-0.563-0.906-1.094-1.2-1.837-0.219-0.563-0.481-1.413-0.55-2.969-0.075-1.688-0.094-2.194-0.094-6.463s0.019-4.781 0.094-6.463c0.069-1.563 0.331-2.406 0.55-2.969 0.288-0.744 0.638-1.281 1.194-1.838 0.563-0.563 1.094-0.906 1.838-1.2 0.563-0.219 1.412-0.481 2.969-0.55 1.681-0.075 2.188-0.094 6.463-0.094zM16 0c-4.344 0-4.887 0.019-6.594 0.094-1.7 0.075-2.869 0.35-3.881 0.744-1.056 0.412-1.95 0.956-2.837 1.85-0.894 0.888-1.438 1.781-1.85 2.831-0.394 1.019-0.669 2.181-0.744 3.881-0.075 1.713-0.094 2.256-0.094 6.6s0.019 4.887 0.094 6.594c0.075 1.7 0.35 2.869 0.744 3.881 0.413 1.056 0.956 1.95 1.85 2.837 0.887 0.887 1.781 1.438 2.831 1.844 1.019 0.394 2.181 0.669 3.881 0.744 1.706 0.075 2.25 0.094 6.594 0.094s4.888-0.019 6.594-0.094c1.7-0.075 2.869-0.35 3.881-0.744 1.050-0.406 1.944-0.956 2.831-1.844s1.438-1.781 1.844-2.831c0.394-1.019 0.669-2.181 0.744-3.881 0.075-1.706 0.094-2.25 0.094-6.594s-0.019-4.887-0.094-6.594c-0.075-1.7-0.35-2.869-0.744-3.881-0.394-1.063-0.938-1.956-1.831-2.844-0.887-0.887-1.781-1.438-2.831-1.844-1.019-0.394-2.181-0.669-3.881-0.744-1.712-0.081-2.256-0.1-6.6-0.1v0z"></path>
<path d="M16 7.781c-4.537 0-8.219 3.681-8.219 8.219s3.681 8.219 8.219 8.219 8.219-3.681 8.219-8.219c0-4.537-3.681-8.219-8.219-8.219zM16 21.331c-2.944 0-5.331-2.387-5.331-5.331s2.387-5.331 5.331-5.331c2.944 0 5.331 2.387 5.331 5.331s-2.387 5.331-5.331 5.331z"></path>
<path d="M26.462 7.456c0 1.060-0.859 1.919-1.919 1.919s-1.919-0.859-1.919-1.919c0-1.060 0.859-1.919 1.919-1.919s1.919 0.859 1.919 1.919z"></path>
</symbol>
<symbol id="icon-twitter" viewBox="0 0 32 32">
<path d="M32 7.075c-1.175 0.525-2.444 0.875-3.769 1.031 1.356-0.813 2.394-2.1 2.887-3.631-1.269 0.75-2.675 1.3-4.169 1.594-1.2-1.275-2.906-2.069-4.794-2.069-3.625 0-6.563 2.938-6.563 6.563 0 0.512 0.056 1.012 0.169 1.494-5.456-0.275-10.294-2.888-13.531-6.862-0.563 0.969-0.887 2.1-0.887 3.3 0 2.275 1.156 4.287 2.919 5.463-1.075-0.031-2.087-0.331-2.975-0.819 0 0.025 0 0.056 0 0.081 0 3.181 2.263 5.838 5.269 6.437-0.55 0.15-1.131 0.231-1.731 0.231-0.425 0-0.831-0.044-1.237-0.119 0.838 2.606 3.263 4.506 6.131 4.563-2.25 1.762-5.075 2.813-8.156 2.813-0.531 0-1.050-0.031-1.569-0.094 2.913 1.869 6.362 2.95 10.069 2.95 12.075 0 18.681-10.006 18.681-18.681 0-0.287-0.006-0.569-0.019-0.85 1.281-0.919 2.394-2.075 3.275-3.394z"></path>
</symbol>
<symbol id="icon-file-text2" viewBox="0 0 32 32">
<path d="M28.681 7.159c-0.694-0.947-1.662-2.053-2.724-3.116s-2.169-2.030-3.116-2.724c-1.612-1.182-2.393-1.319-2.841-1.319h-15.5c-1.378 0-2.5 1.121-2.5 2.5v27c0 1.378 1.122 2.5 2.5 2.5h23c1.378 0 2.5-1.122 2.5-2.5v-19.5c0-0.448-0.137-1.23-1.319-2.841zM24.543 5.457c0.959 0.959 1.712 1.825 2.268 2.543h-4.811v-4.811c0.718 0.556 1.584 1.309 2.543 2.268zM28 29.5c0 0.271-0.229 0.5-0.5 0.5h-23c-0.271 0-0.5-0.229-0.5-0.5v-27c0-0.271 0.229-0.5 0.5-0.5 0 0 15.499-0 15.5 0v7c0 0.552 0.448 1 1 1h7v19.5z"></path>
<path d="M23 26h-14c-0.552 0-1-0.448-1-1s0.448-1 1-1h14c0.552 0 1 0.448 1 1s-0.448 1-1 1z"></path>
<path d="M23 22h-14c-0.552 0-1-0.448-1-1s0.448-1 1-1h14c0.552 0 1 0.448 1 1s-0.448 1-1 1z"></path>
<path d="M23 18h-14c-0.552 0-1-0.448-1-1s0.448-1 1-1h14c0.552 0 1 0.448 1 1s-0.448 1-1 1z"></path>
</symbol>
<symbol id="icon-home" viewBox="0 0 20 20">
<path d="M18.672 11h-1.672v6c0 0.445-0.194 1-1 1h-4v-6h-4v6h-4c-0.806 0-1-0.555-1-1v-6h-1.672c-0.598 0-0.47-0.324-0.060-0.748l8.024-8.032c0.195-0.202 0.451-0.302 0.708-0.312 0.257 0.010 0.513 0.109 0.708 0.312l8.023 8.031c0.411 0.425 0.539 0.749-0.059 0.749z"></path>
</symbol>
<symbol id="icon-folder" viewBox="0 0 20 20">
<path d="M18.405 4.799c-0.111-0.44-0.655-0.799-1.21-0.799h-6.814c-0.554 0-1.33-0.318-1.722-0.707l-0.596-0.588c-0.392-0.389-1.167-0.705-1.721-0.705h-3.255c-0.555 0-1.059 0.447-1.12 0.994l-0.292 3.006h16.931l-0.201-1.201zM19.412 7h-18.824c-0.342 0-0.61 0.294-0.577 0.635l0.923 9.669c0.037 0.394 0.369 0.696 0.766 0.696h16.6c0.397 0 0.728-0.302 0.766-0.696l0.923-9.669c0.033-0.341-0.235-0.635-0.577-0.635z"></path>
</symbol>
<symbol id="icon-circle-with-plus" viewBox="0 0 20 20">
<path d="M10 1.6c-4.639 0-8.4 3.761-8.4 8.4s3.761 8.4 8.4 8.4 8.4-3.761 8.4-8.4c0-4.639-3.761-8.4-8.4-8.4zM15 11h-4v4h-2v-4h-4v-2h4v-4h2v4h4v2z"></path>
</symbol>
<symbol id="icon-trash-2" viewBox="0 0 24 24">
<path d="M18 7v13c0 0.276-0.111 0.525-0.293 0.707s-0.431 0.293-0.707 0.293h-10c-0.276 0-0.525-0.111-0.707-0.293s-0.293-0.431-0.293-0.707v-13zM17 5v-1c0-0.828-0.337-1.58-0.879-2.121s-1.293-0.879-2.121-0.879h-4c-0.828 0-1.58 0.337-2.121 0.879s-0.879 1.293-0.879 2.121v1h-4c-0.552 0-1 0.448-1 1s0.448 1 1 1h1v13c0 0.828 0.337 1.58 0.879 2.121s1.293 0.879 2.121 0.879h10c0.828 0 1.58-0.337 2.121-0.879s0.879-1.293 0.879-2.121v-13h1c0.552 0 1-0.448 1-1s-0.448-1-1-1zM9 5v-1c0-0.276 0.111-0.525 0.293-0.707s0.431-0.293 0.707-0.293h4c0.276 0 0.525 0.111 0.707 0.293s0.293 0.431 0.293 0.707v1zM9 11v6c0 0.552 0.448 1 1 1s1-0.448 1-1v-6c0-0.552-0.448-1-1-1s-1 0.448-1 1zM13 11v6c0 0.552 0.448 1 1 1s1-0.448 1-1v-6c0-0.552-0.448-1-1-1s-1 0.448-1 1z"></path>
</symbol>
<symbol id="icon-settings" viewBox="0 0 24 24">
<path d="M16 12c0-1.104-0.449-2.106-1.172-2.828s-1.724-1.172-2.828-1.172-2.106 0.449-2.828 1.172-1.172 1.724-1.172 2.828 0.449 2.106 1.172 2.828 1.724 1.172 2.828 1.172 2.106-0.449 2.828-1.172 1.172-1.724 1.172-2.828zM14 12c0 0.553-0.223 1.051-0.586 1.414s-0.861 0.586-1.414 0.586-1.051-0.223-1.414-0.586-0.586-0.861-0.586-1.414 0.223-1.051 0.586-1.414 0.861-0.586 1.414-0.586 1.051 0.223 1.414 0.586 0.586 0.861 0.586 1.414zM20.315 15.404c0.046-0.105 0.112-0.191 0.192-0.257 0.112-0.092 0.251-0.146 0.403-0.147h0.090c0.828 0 1.58-0.337 2.121-0.879s0.879-1.293 0.879-2.121-0.337-1.58-0.879-2.121-1.293-0.879-2.121-0.879h-0.159c-0.11-0.001-0.215-0.028-0.308-0.076-0.127-0.066-0.23-0.172-0.292-0.312-0.003-0.029-0.004-0.059-0.004-0.089-0.024-0.055-0.040-0.111-0.049-0.168 0.020-0.334 0.077-0.454 0.168-0.547l0.062-0.062c0.585-0.586 0.878-1.356 0.877-2.122s-0.294-1.536-0.881-2.122c-0.586-0.585-1.356-0.878-2.122-0.877s-1.536 0.294-2.12 0.879l-0.046 0.046c-0.083 0.080-0.183 0.136-0.288 0.166-0.14 0.039-0.291 0.032-0.438-0.033-0.101-0.044-0.187-0.11-0.253-0.19-0.092-0.112-0.146-0.251-0.147-0.403v-0.090c0-0.828-0.337-1.58-0.879-2.121s-1.293-0.879-2.121-0.879-1.58 0.337-2.121 0.879-0.879 1.293-0.879 2.121v0.159c-0.001 0.11-0.028 0.215-0.076 0.308-0.066 0.127-0.172 0.23-0.312 0.292-0.029 0.003-0.059 0.004-0.089 0.004-0.055 0.024-0.111 0.040-0.168 0.049-0.335-0.021-0.455-0.078-0.548-0.169l-0.062-0.062c-0.586-0.585-1.355-0.878-2.122-0.878s-1.535 0.294-2.122 0.882c-0.585 0.586-0.878 1.355-0.878 2.122s0.294 1.536 0.879 2.12l0.048 0.047c0.080 0.083 0.136 0.183 0.166 0.288 0.039 0.14 0.032 0.291-0.031 0.434-0.006 0.016-0.013 0.034-0.021 0.052-0.041 0.109-0.108 0.203-0.191 0.275-0.11 0.095-0.25 0.153-0.383 0.156h-0.090c-0.828 0-1.58 0.337-2.121 0.879s-0.879 1.294-0.879 2.122 0.337 1.58 0.879 2.121 1.293 0.879 2.121 0.879h0.159c0.11 0.001 0.215 0.028 0.308 0.076 0.128 0.067 0.233 0.174 0.296 0.321 0.024 0.055 0.040 0.111 0.049 0.168-0.020 0.334-0.077 0.454-0.168 0.547l-0.062 0.062c-0.585 0.586-0.878 1.356-0.877 2.122s0.294 1.536 0.881 2.122c0.586 0.585 1.356 0.878 2.122 0.877s1.536-0.294 2.12-0.879l0.047-0.048c0.083-0.080 0.183-0.136 0.288-0.166 0.14-0.039 0.291-0.032 0.434 0.031 0.016 0.006 0.034 0.013 0.052 0.021 0.109 0.041 0.203 0.108 0.275 0.191 0.095 0.11 0.153 0.25 0.156 0.383v0.092c0 0.828 0.337 1.58 0.879 2.121s1.293 0.879 2.121 0.879 1.58-0.337 2.121-0.879 0.879-1.293 0.879-2.121v-0.159c0.001-0.11 0.028-0.215 0.076-0.308 0.067-0.128 0.174-0.233 0.321-0.296 0.055-0.024 0.111-0.040 0.168-0.049 0.334 0.020 0.454 0.077 0.547 0.168l0.062 0.062c0.586 0.585 1.356 0.878 2.122 0.877s1.536-0.294 2.122-0.881c0.585-0.586 0.878-1.356 0.877-2.122s-0.294-1.536-0.879-2.12l-0.048-0.047c-0.080-0.083-0.136-0.183-0.166-0.288-0.039-0.14-0.032-0.291 0.031-0.434zM18.396 9.302c-0.012-0.201-0.038-0.297-0.076-0.382v0.080c0 0.043 0.003 0.084 0.008 0.125 0.021 0.060 0.043 0.119 0.068 0.177 0.004 0.090 0.005 0.091 0.005 0.092 0.249 0.581 0.684 1.030 1.208 1.303 0.371 0.193 0.785 0.298 1.211 0.303h0.18c0.276 0 0.525 0.111 0.707 0.293s0.293 0.431 0.293 0.707-0.111 0.525-0.293 0.707-0.431 0.293-0.707 0.293h-0.090c-0.637 0.003-1.22 0.228-1.675 0.603-0.323 0.266-0.581 0.607-0.75 0.993-0.257 0.582-0.288 1.21-0.127 1.782 0.119 0.423 0.341 0.814 0.652 1.136l0.072 0.073c0.196 0.196 0.294 0.45 0.294 0.707s-0.097 0.512-0.292 0.707c-0.197 0.197-0.451 0.295-0.709 0.295s-0.512-0.097-0.707-0.292l-0.061-0.061c-0.463-0.453-1.040-0.702-1.632-0.752-0.437-0.037-0.882 0.034-1.293 0.212-0.578 0.248-1.027 0.683-1.3 1.206-0.193 0.371-0.298 0.785-0.303 1.211v0.181c0 0.276-0.111 0.525-0.293 0.707s-0.43 0.292-0.706 0.292-0.525-0.111-0.707-0.293-0.293-0.431-0.293-0.707v-0.090c-0.015-0.66-0.255-1.242-0.644-1.692-0.284-0.328-0.646-0.585-1.058-0.744-0.575-0.247-1.193-0.274-1.756-0.116-0.423 0.119-0.814 0.341-1.136 0.652l-0.073 0.072c-0.196 0.196-0.45 0.294-0.707 0.294s-0.512-0.097-0.707-0.292c-0.197-0.197-0.295-0.451-0.295-0.709s0.097-0.512 0.292-0.707l0.061-0.061c0.453-0.463 0.702-1.040 0.752-1.632 0.037-0.437-0.034-0.882-0.212-1.293-0.248-0.578-0.683-1.027-1.206-1.3-0.371-0.193-0.785-0.298-1.211-0.303l-0.18 0.001c-0.276 0-0.525-0.111-0.707-0.293s-0.293-0.431-0.293-0.707 0.111-0.525 0.293-0.707 0.431-0.293 0.707-0.293h0.090c0.66-0.015 1.242-0.255 1.692-0.644 0.328-0.284 0.585-0.646 0.744-1.058 0.247-0.575 0.274-1.193 0.116-1.756-0.119-0.423-0.341-0.814-0.652-1.136l-0.073-0.073c-0.196-0.196-0.294-0.45-0.294-0.707s0.097-0.512 0.292-0.707c0.197-0.197 0.451-0.295 0.709-0.295s0.512 0.097 0.707 0.292l0.061 0.061c0.463 0.453 1.040 0.702 1.632 0.752 0.37 0.032 0.745-0.014 1.101-0.137 0.096-0.012 0.186-0.036 0.266-0.072-0.031 0.001-0.061 0.003-0.089 0.004-0.201 0.012-0.297 0.038-0.382 0.076h0.080c0.043 0 0.084-0.003 0.125-0.008 0.060-0.021 0.119-0.043 0.177-0.068 0.090-0.004 0.091-0.005 0.092-0.005 0.581-0.249 1.030-0.684 1.303-1.208 0.193-0.37 0.298-0.785 0.303-1.21v-0.181c0-0.276 0.111-0.525 0.293-0.707s0.431-0.293 0.707-0.293 0.525 0.111 0.707 0.293 0.293 0.431 0.293 0.707v0.090c0.003 0.637 0.228 1.22 0.603 1.675 0.266 0.323 0.607 0.581 0.996 0.751 0.578 0.255 1.206 0.286 1.778 0.125 0.423-0.119 0.814-0.341 1.136-0.652l0.073-0.072c0.196-0.196 0.45-0.294 0.707-0.294s0.512 0.097 0.707 0.292c0.197 0.197 0.295 0.451 0.295 0.709s-0.097 0.512-0.292 0.707l-0.061 0.061c-0.453 0.463-0.702 1.040-0.752 1.632-0.032 0.37 0.014 0.745 0.137 1.101 0.012 0.095 0.037 0.185 0.072 0.266-0.001-0.032-0.002-0.062-0.004-0.089z"></path>
</symbol>
</defs>
</svg>
